<svg width="18" height="17" viewBox="0 0 18 17" fill="none" xmlns="http://www.w3.org/2000/svg">
<path d="M12.1878 1.82328C13.1312 1.82599 14.0351 2.18807 14.7022 2.83043C15.3692 3.47278 15.7452 4.34323 15.748 5.25166V12.1077C15.7452 13.0161 15.3692 13.8866 14.7022 14.5289C14.0351 15.1713 13.1312 15.5334 12.1878 15.5361H5.06809C4.12472 15.5334 3.2208 15.1713 2.55373 14.5289C1.88667 13.8866 1.51067 13.0161 1.50785 12.1077V5.25166C1.51067 4.34323 1.88667 3.47278 2.55373 2.83043C3.2208 2.18807 4.12472 1.82599 5.06809 1.82328H12.1878ZM12.1878 0.452148H5.06809C2.32678 0.452148 0.0839844 2.61187 0.0839844 5.25166V12.1077C0.0839844 14.7475 2.32678 16.9072 5.06809 16.9072H12.1878C14.9291 16.9072 17.1719 14.7475 17.1719 12.1077V5.25166C17.1719 2.61187 14.9291 0.452148 12.1878 0.452148Z" fill="white"/>
<path d="M13.2558 5.25219C13.0446 5.25219 12.8381 5.19188 12.6624 5.07887C12.4868 4.96586 12.3499 4.80524 12.2691 4.61732C12.1883 4.4294 12.1671 4.22261 12.2083 4.02311C12.2495 3.82362 12.3512 3.64037 12.5006 3.49654C12.65 3.35271 12.8403 3.25476 13.0474 3.21507C13.2546 3.17539 13.4693 3.19576 13.6645 3.2736C13.8596 3.35144 14.0264 3.48326 14.1438 3.65238C14.2612 3.82151 14.3238 4.02035 14.3238 4.22375C14.3241 4.35889 14.2967 4.49276 14.2431 4.61766C14.1895 4.74257 14.1109 4.85606 14.0117 4.95162C13.9124 5.04718 13.7946 5.12292 13.6649 5.1745C13.5351 5.22608 13.3961 5.25248 13.2558 5.25219ZM8.62794 5.93758C9.19124 5.93758 9.7419 6.09843 10.2103 6.39979C10.6786 6.70116 11.0437 7.1295 11.2593 7.63065C11.4748 8.1318 11.5312 8.68325 11.4213 9.21527C11.3114 9.74728 11.0402 10.236 10.6419 10.6195C10.2435 11.0031 9.73606 11.2643 9.18358 11.3701C8.6311 11.476 8.05844 11.4216 7.53801 11.2141C7.01759 11.0065 6.57277 10.655 6.25982 10.2039C5.94686 9.75291 5.77983 9.22265 5.77983 8.68021C5.78063 7.95305 6.08096 7.25591 6.61491 6.74173C7.14886 6.22756 7.87282 5.93835 8.62794 5.93758ZM8.62794 4.56644C7.78302 4.56644 6.95708 4.80771 6.25455 5.25974C5.55203 5.71176 5.00448 6.35425 4.68114 7.10594C4.35781 7.85763 4.27321 8.68477 4.43804 9.48276C4.60288 10.2808 5.00975 11.0138 5.60719 11.5891C6.20464 12.1644 6.96584 12.5562 7.79452 12.7149C8.6232 12.8737 9.48215 12.7922 10.2628 12.4808C11.0434 12.1695 11.7106 11.6422 12.18 10.9657C12.6494 10.2892 12.8999 9.49383 12.8999 8.68021C12.8999 7.58917 12.4498 6.54282 11.6487 5.77134C10.8475 4.99986 9.76094 4.56644 8.62794 4.56644Z" fill="white"/>
</svg>
