<svg width="19" height="15" viewBox="0 0 19 15" fill="none" xmlns="http://www.w3.org/2000/svg">
<path d="M18.5683 2.0917C17.8815 2.39011 17.1548 2.58671 16.4113 2.67528C17.1927 2.21772 17.7804 1.49079 18.064 0.630835C17.3252 1.06284 16.5183 1.36595 15.6778 1.52719C15.3239 1.15626 14.8982 0.86118 14.4267 0.659879C13.9552 0.458577 13.4477 0.35526 12.935 0.356208C10.8592 0.356208 9.17944 2.0116 9.17944 4.05223C9.17796 4.33608 9.21049 4.61908 9.27632 4.89519C7.78787 4.82541 6.33038 4.44571 4.99708 3.78037C3.66379 3.11504 2.48405 2.17873 1.53335 1.03133C1.19982 1.5936 1.02343 2.23513 1.02262 2.88888C1.02262 4.17048 1.69126 5.30332 2.7009 5.967C2.10272 5.9528 1.51679 5.79448 0.992868 5.50547V5.55124C0.992868 7.34395 2.28972 8.83533 4.00614 9.1748C3.68337 9.26084 3.35076 9.30444 3.01672 9.30448C2.77969 9.3049 2.5432 9.2819 2.3107 9.23583C2.78786 10.7043 4.17664 11.7723 5.82173 11.8028C4.48498 12.833 2.84379 13.3898 1.15612 13.3858C0.856553 13.3853 0.557266 13.3675 0.259766 13.3324C1.97664 14.4287 3.97236 15.0085 6.0094 15.003C12.927 15.003 16.7061 9.36933 16.7061 4.48325C16.7061 4.32305 16.7019 4.16285 16.6943 4.00646C17.4278 3.48469 18.0624 2.83629 18.5683 2.0917Z" fill="white"/>
</svg>
